<svg xmlns="http://www.w3.org/2000/svg" viewBox="0 0 48 48"><defs><clipPath id="c"><circle cx="24" cy="24" r="23"/></clipPath><linearGradient id="sky" x1="0" y1="0" x2="0" y2="1"><stop stop-color="#92b8d1"/><stop offset=".58" stop-color="#d7e2df"/><stop offset=".59" stop-color="#b8a96b"/><stop offset="1" stop-color="#d8d2ae"/></linearGradient></defs><g clip-path="url(#c)"><rect width="48" height="48" fill="url(#sky)"/><rect x="5" y="20" width="8" height="18" rx="1" fill="#6f7f7a"/><rect x="15" y="15" width="10" height="23" rx="1" fill="#85958f"/><rect x="27" y="12" width="7" height="26" rx="1" fill="#677b78"/><rect x="36" y="18" width="8" height="20" rx="1" fill="#87958d"/><g fill="#dbe6d9"><path d="M7 23h4v2H7zm0 5h4v2H7zm10-10h6v2h-6zm0 5h6v2h-6zm0 5h6v2h-6zm12-13h3v2h-3zm0 5h3v2h-3zm0 5h3v2h-3zm9-4h4v2h-4zm0 5h4v2h-4z"/></g><path d="M0 38c8-3 15-2 22 0 10 3 18 1 26-2v12H0z" fill="#c4b985"/></g><circle cx="24" cy="24" r="23" fill="none" stroke="#263746" stroke-width="1"/></svg>